<?xml version="1.0" standalone="no"?>
<!DOCTYPE svg PUBLIC "-//W3C//DTD SVG 20010904//EN"
 "http://www.w3.org/TR/2001/REC-SVG-20010904/DTD/svg10.dtd">
<svg version="1.0" xmlns="http://www.w3.org/2000/svg"
 width="700.000000pt" height="700.000000pt" viewBox="0 0 700.000000 700.000000"
 preserveAspectRatio="xMidYMid meet">
<metadata>
Created by potrace 1.11, written by Peter Selinger 2001-2013
</metadata>
<g transform="translate(0.000000,700.000000) scale(0.100000,-0.100000)"
fill="#000000" stroke="none">
<path d="M3288 6266 c-1 -2 -82 -6 -178 -10 -96 -3 -184 -8 -195 -10 -25 -4
-95 -14 -160 -21 -27 -4 -117 -20 -199 -36 -680 -137 -1303 -466 -1771 -934
-149 -148 -259 -282 -368 -446 -86 -129 -198 -342 -247 -469 -18 -47 -36 -94
-41 -105 -26 -62 -91 -328 -104 -430 -19 -144 -22 -201 -20 -382 2 -111 5
-205 8 -210 3 -4 8 -35 11 -67 20 -185 99 -467 194 -686 38 -89 122 -260 152
-310 167 -278 331 -505 505 -699 61 -68 262 -270 234 -236 -13 16 -27 32 -30
35 -15 13 -182 244 -231 320 -282 439 -438 865 -487 1335 -9 91 -7 402 3 485
7 50 18 123 32 205 68 397 312 877 604 1189 92 98 113 118 200 197 268 238
595 420 945 525 88 27 96 29 205 49 41 7 89 16 105 19 137 26 570 26 638 0 7
-2 26 -6 42 -8 262 -34 638 -191 891 -372 334 -239 631 -574 859 -971 19 -34
35 -64 35 -67 0 -3 -135 -6 -300 -6 l-300 0 -1 -42 c-2 -80 1 -190 5 -197 3
-4 2328 -6 2417 -2 14 1 16 18 15 119 l0 117 -184 5 -183 5 -52 100 c-165 316
-366 616 -569 848 -125 144 -363 372 -470 450 -20 15 -42 33 -50 40 -18 19
-219 156 -303 207 -146 90 -399 209 -585 275 -142 51 -412 121 -535 140 -22 3
-47 7 -55 10 -8 2 -45 7 -82 10 -37 3 -76 8 -88 10 -12 2 -81 7 -153 10 -73 4
-137 8 -144 10 -6 2 -13 2 -15 1z"/>
<path d="M4087 3660 c-8 -4 -12 -40 -13 -122 l-1 -118 131 0 c213 -1 517 -8
581 -15 377 -38 477 -128 501 -455 6 -75 5 -546 -1 -595 -11 -100 -17 -136
-36 -215 -72 -307 -264 -432 -569 -369 -103 21 -318 98 -390 139 -8 5 -33 19
-54 30 -92 50 -249 191 -357 320 -57 67 -167 215 -281 375 -335 472 -583 680
-903 759 -210 51 -621 54 -879 5 -373 -70 -624 -235 -754 -495 -51 -100 -73
-175 -91 -305 -16 -120 -2 -347 30 -487 6 -26 13 -58 15 -72 19 -102 139 -451
209 -605 51 -114 157 -327 191 -385 19 -32 34 -61 34 -64 0 -2 -154 -5 -342
-5 -189 0 -367 0 -395 -1 l-53 0 0 -120 c0 -89 3 -120 13 -121 14 -1 2598 0
2642 0 l30 1 -2 102 c0 57 -2 112 -2 123 -1 19 -8 20 -134 21 -124 1 -295 10
-362 19 -16 3 -67 9 -113 15 -386 51 -664 183 -790 375 -44 68 -69 126 -92
220 -20 77 -23 117 -24 270 -1 174 0 182 27 249 52 132 155 232 302 293 179
76 409 79 530 7 25 -14 103 -85 173 -157 473 -487 621 -622 867 -788 242 -164
556 -304 770 -343 174 -32 228 -38 355 -40 211 -2 337 18 480 74 334 132 588
432 734 870 46 141 114 435 140 612 32 214 116 389 256 529 140 141 315 220
510 228 l30 1 0 120 c0 66 -3 120 -7 121 -37 4 -2897 3 -2906 -1z"/>
</g>
</svg>
