<?xml version="1.0" encoding="UTF-8" standalone="no"?>
<svg xmlns:dc="http://purl.org/dc/elements/1.1/" xmlns:cc="http://creativecommons.org/ns#" xmlns:rdf="http://www.w3.org/1999/02/22-rdf-syntax-ns#" xmlns:svg="http://www.w3.org/2000/svg" xmlns="http://www.w3.org/2000/svg" xmlns:sodipodi="http://sodipodi.sourceforge.net/DTD/sodipodi-0.dtd" xmlns:inkscape="http://www.inkscape.org/namespaces/inkscape" viewBox="0 0 239.99999 64.000002" height="64" width="240" version="1.0" id="svg32" inkscape:version="0.91+devel r" sodipodi:docname="logo.svg">
    <metadata id="metadata36">
        <rdf:RDF>
            <cc:Work rdf:about="">
                <dc:format>image/svg+xml</dc:format>
                <dc:type rdf:resource="http://purl.org/dc/dcmitype/StillImage" />
            </cc:Work>
        </rdf:RDF>
    </metadata>
    <sodipodi:namedview pagecolor="#ffffff" bordercolor="#666666" borderopacity="1" objecttolerance="10" gridtolerance="10" guidetolerance="10" inkscape:pageopacity="0" inkscape:pageshadow="2" inkscape:window-width="640" inkscape:window-height="480" id="namedview34" showgrid="false" inkscape:zoom="2.9006109" inkscape:cx="138.4913" inkscape:cy="-35.676169" inkscape:current-layer="svg32" />
    <defs id="defs28">
        <linearGradient id="a" y2="0" gradientUnits="userSpaceOnUse" x2="0" y1="64" x1="0">
            <stop stop-color="#a2dc78" offset="0" id="stop23" />
            <stop stop-color="#5bad22" offset="1" id="stop25" />
        </linearGradient>
    </defs>
    <path id="path2" d="M 13.312,59.058 C -17.048,23.05 35.199,-15.076 57.086,24.462 h -7.0604 v 2.8242 h 28.242 V 24.462 h -4.2362 c -26.123,-53.659 -105.2,-8.4724 -60.719,34.596 z M 29.551,32.934 C 19.026,31.8792 11.9,35.0522 11.194,42.8186 c -0.70604,7.7664 5.6483,18.357 5.6483,18.357 H 7.664 v 2.8242 h 31.065 v -2.8242 c -16.945,0 -17.651,-5.6482 -17.651,-11.297 0,-5.6484 7.0604,-7.0604 9.8846,-5.6484 2.8242,1.4122 10.944,14.827 24.711,15.533 13.768,0.706 15.533,-14.121 16.239,-18.357 0.77864,-4.6718 4.2362,-8.4726 9.1785,-8.4726 v -2.824 h -33.889 v 2.824 c 14.121,0 14.121,0 14.121,9.8846 0,9.3324 -3.5302,11.297 -11.297,7.7664 -7.7664,-3.5302 -9.9502,-16.596 -20.475,-17.651 z" inkscape:connector-curvature="0" />
    <path id="path4" d="m 104.21,30.718 q 0,4.0001 -0.92038,6.2656 -0.92038,2.2655 -2.6195,2.2655 h -2.974 v -16.637 h 3.0797 q 1.7346,0 2.5841,2.0886 0.84958,2.0886 0.84958,6.0179 z M 92.387,18.222 v 25.417 h 8.7436 q 4.0001,0 6.1948,-3.5045 2.1948,-3.5045 2.1948,-9.5932 0,-5.7701 -2.124,-9.0268 -2.0886,-3.2921 -5.9824,-3.2921 z" inkscape:connector-curvature="0" />
    <path id="path6" d="m 122.66,34.01 h -3.6107 l 1.8054,-8.1418 z m 7.9294,9.6286 -6.5842,-25.417 h -6.1594 l -6.5842,25.417 h 5.6285 l 1.1682,-5.2037 h 5.5577 l 1.1682,5.2037 z" inkscape:connector-curvature="0" />
    <path id="path8" d="m 148.96,35.957 q 0,-3.2213 -1.593,-4.7789 -1.593,-1.5576 -5.6993,-2.6195 -2.0178,-0.70798 -3.0797,-1.239 -1.062,-0.53099 -1.062,-2.3363 0,-1.4514 0.70798,-2.2301 0.70798,-0.81418 1.9116,-0.81418 1.416,0 2.1947,1.0266 0.77878,1.0266 0.88498,2.7965 h 5.0975 q -0.28319,-4.4957 -2.4071,-6.3364 -2.0886,-1.8762 -4.8143,-1.8762 -4.0355,0 -6.301,2.0886 -2.2301,2.0886 -2.2301,5.9825 0,3.0089 1.3806,4.6373 1.416,1.6284 4.8497,2.5487 2.3717,0.74338 3.7169,1.416 1.3452,0.63718 1.3452,2.6195 0,1.5576 -0.84958,2.3363 -0.81418,0.74338 -2.301,0.74338 -1.593,0 -2.4779,-1.0266 -0.84958,-1.0266 -0.84958,-3.0797 h -5.1683 q 0.17699,4.6373 2.4071,6.5842 2.2655,1.9116 5.4161,1.9116 4.1417,0 6.5134,-2.1593 2.4071,-2.1947 2.4071,-6.1949 z" inkscape:connector-curvature="0" />
    <path id="path10" d="m 157.5,34.506 h 3.4337 q 3.0089,0 4.9205,-2.2655 1.947,-2.3009 1.947,-5.8055 0,-3.7523 -1.8408,-5.9825 -1.8408,-2.2301 -4.9913,-2.2301 h -8.779 v 25.417 H 157.5 Z m 0,-4.4249 v -7.4692 h 2.5133 q 1.239,0 1.8408,0.88498 0.63718,0.84958 0.63718,2.6903 0,1.9824 -0.60178,2.9381 -0.56639,0.95578 -1.7346,0.95578 z" inkscape:connector-curvature="0" />
    <path id="path12" d="m 176.38,33.727 h 3.1859 q 1.3098,0 1.8054,0.81418 0.49559,0.81418 0.49559,3.0797 v 1.9116 q 0,0.42479 0.1062,1.8054 0.10619,1.3806 0.42479,2.3009 h 5.6639 V 42.9662 q -0.46019,-0.2124 -0.67258,-0.70798 -0.177,-0.49559 -0.2124,-2.8319 v -1.9824 q 0,-2.0178 -0.46019,-3.6461 -0.46019,-1.6284 -1.8762,-2.3009 1.4514,-0.95578 2.1594,-2.4071 0.70798,-1.4868 0.70798,-3.6815 0,-3.3983 -1.7346,-5.2745 -1.7346,-1.9116 -4.7081,-1.9116 h -10.195 v 25.417 h 5.3099 z m -0.1062,-4.3187 v -6.7966 h 3.8231 q 1.1328,0 1.6992,0.77878 0.60179,0.77878 0.60179,2.4071 0,1.9824 -0.56639,2.7965 -0.56639,0.81418 -1.8408,0.81418 z" inkscape:connector-curvature="0" />
    <path id="path14" d="m 190.33,20.275 v 2.3009 h 4.9559 V 17.974 H 190.33 Z m 4.9559,23.363 V 24.807 H 190.33 v 18.832 z" inkscape:connector-curvature="0" />
    <path id="path16" d="m 211.24,30.718 q 0,4.0001 -0.92037,6.2656 -0.92038,2.2655 -2.6195,2.2655 h -2.9735 v -16.637 h 3.0797 q 1.7346,0 2.5841,2.0886 0.84958,2.0886 0.84958,6.0179 z M 199.417,18.222 v 25.417 h 8.7436 q 4.0001,0 6.1948,-3.5045 2.1948,-3.5045 2.1948,-9.5932 0,-5.7701 -2.124,-9.0268 -2.0886,-3.2921 -5.9825,-3.2921 z" inkscape:connector-curvature="0" />
    <path id="path18" d="m 222.46,18.222 h -3.4691 v 9.5932 h 3.4691 z" inkscape:connector-curvature="0" />
    <path id="path20" d="m 239.12,37.869 q 0,-2.5133 -1.3806,-3.8585 -1.3806,-1.3452 -4.4603,-2.0178 -1.593,-0.49559 -2.124,-0.88498 -0.49558,-0.38939 -0.49558,-1.3098 0,-0.88498 0.35399,-1.3098 0.35399,-0.42479 1.0974,-0.42479 0.81418,0 1.239,0.67258 0.42479,0.67258 0.42479,1.8054 h 4.8851 q -0.28319,-3.6461 -1.9824,-4.9205 -1.6992,-1.3098 -3.9293,-1.3098 -3.0443,0 -5.0267,1.6284 -1.947,1.6284 -1.947,4.7081 0,2.4071 1.416,3.6107 1.416,1.1682 2.9735,1.593 1.947,0.60178 2.9735,1.062 1.0266,0.46019 1.0266,1.6638 0,0.77878 -0.53099,1.3098 -0.49558,0.49559 -1.1328,0.49559 -0.99118,0 -1.5576,-0.63718 -0.53099,-0.63718 -0.56639,-2.1239 h -5.0975 q 0.2124,3.8939 2.2302,5.2391 2.0178,1.3098 4.2833,1.3098 3.2921,0 5.3099,-1.7346 2.0178,-1.7346 2.0178,-4.5665 z" inkscape:connector-curvature="0" />
</svg>
